<svg xmlns="http://www.w3.org/2000/svg" viewBox="0 0 840 1188" width="840" height="1188" font-family="'Golos Text', system-ui, sans-serif">
  <rect width="840" height="1188" fill="#FCFDFD"/>
  <rect x="28" y="28" width="784" height="1132" fill="none" stroke="#0B2430" stroke-opacity=".35" stroke-width="2"/>
  <rect x="40" y="40" width="760" height="1108" fill="none" stroke="#12958C" stroke-opacity=".35" stroke-width="1"/>

  <!-- герб-заглушка -->
  <g transform="translate(420,118)" opacity=".5">
    <circle r="42" fill="none" stroke="#0B2430" stroke-width="1.5"/>
    <path d="M0 -26 L22 22 A26 26 0 0 1 -22 22 Z" fill="none" stroke="#12958C" stroke-width="1.5"/>
    <path d="M-16 8 q5.4 -9 10.7 0 t10.7 0 t10.7 0" fill="none" stroke="#0B2430" stroke-width="1.5" stroke-linecap="round"/>
  </g>

  <text x="420" y="212" text-anchor="middle" font-size="15" letter-spacing="4" fill="#4A626E">МИНИСТЕРСТВО ЗДРАВООХРАНЕНИЯ</text>
  <text x="420" y="238" text-anchor="middle" font-size="15" letter-spacing="4" fill="#4A626E">РЕСПУБЛИКИ ТАТАРСТАН</text>

  <text x="420" y="330" text-anchor="middle" font-size="46" font-weight="600" letter-spacing="10" fill="#0B2430">ЛИЦЕНЗИЯ</text>
  <line x1="240" y1="360" x2="600" y2="360" stroke="#12958C" stroke-width="1.5"/>

  <text x="420" y="404" text-anchor="middle" font-size="19" font-family="'JetBrains Mono', monospace" fill="#0B2430">№ Л041-01181-16/00000000</text>
  <text x="420" y="434" text-anchor="middle" font-size="14" fill="#4A626E">от 12 марта 2021 года</text>

  <text x="96" y="512" font-size="12" letter-spacing="2" fill="#4A626E">НА ОСУЩЕСТВЛЕНИЕ МЕДИЦИНСКОЙ ДЕЯТЕЛЬНОСТИ</text>
  <line x1="96" y1="528" x2="744" y2="528" stroke="#D3DDE0"/>

  <text x="96" y="566" font-size="12" letter-spacing="2" fill="#4A626E">ЛИЦЕНЗИАТ</text>
  <text x="96" y="596" font-size="17" fill="#0B2430">Общество с ограниченной ответственностью «АЯЗ Мед»</text>
  <text x="96" y="622" font-size="14" font-family="'JetBrains Mono', monospace" fill="#4A626E">ИНН 1651000000 · ОГРН 1161690000000</text>

  <text x="96" y="668" font-size="12" letter-spacing="2" fill="#4A626E">АДРЕС МЕСТА ОСУЩЕСТВЛЕНИЯ ДЕЯТЕЛЬНОСТИ</text>
  <text x="96" y="696" font-size="15" fill="#0B2430">423570, Республика Татарстан, г. Нижнекамск,</text>
  <text x="96" y="718" font-size="15" fill="#0B2430">проспект Химиков, д. 42, пом. 1</text>

  <text x="96" y="766" font-size="12" letter-spacing="2" fill="#4A626E">ВИДЫ РАБОТ (УСЛУГ)</text>
  <g font-size="15" fill="#0B2430">
    <text x="96" y="796">— ультразвуковая диагностика</text>
    <text x="96" y="822">— терапия</text>
    <text x="96" y="848">— кардиология</text>
    <text x="96" y="874">— акушерство и гинекология</text>
    <text x="96" y="900">— детская хирургия (в части ультразвуковой диагностики)</text>
  </g>

  <line x1="96" y1="960" x2="744" y2="960" stroke="#D3DDE0"/>
  <text x="96" y="994" font-size="13" fill="#4A626E">Лицензия предоставлена бессрочно</text>
  <text x="96" y="1018" font-size="13" fill="#4A626E">Министр здравоохранения Республики Татарстан</text>
  <line x1="500" y1="1022" x2="744" y2="1022" stroke="#4A626E" stroke-opacity=".5"/>

  <!-- водяной знак -->
  <text x="420" y="640" text-anchor="middle" font-size="150" font-weight="700" letter-spacing="18"
        fill="#E2563C" fill-opacity=".12" transform="rotate(-26 420 640)">ОБРАЗЕЦ</text>
  <text x="420" y="1104" text-anchor="middle" font-size="12" letter-spacing="3" fill="#E2563C" fill-opacity=".75">
    ДЕМОНСТРАЦИОННЫЙ МАКЕТ · НЕ ЯВЛЯЕТСЯ ДОКУМЕНТОМ
  </text>
</svg>
